<?xml version="1.0" encoding="UTF-8"?>
<!DOCTYPE svg PUBLIC "-//W3C//DTD SVG 1.1//EN" "http://www.w3.org/Graphics/SVG/1.1/DTD/svg11.dtd">
<!-- Creator: CorelDRAW 2021 (64-Bit) -->
<svg xmlns="http://www.w3.org/2000/svg" xml:space="preserve" width="0.961996in" height="0.895677in" version="1.1" style="shape-rendering:geometricPrecision; text-rendering:geometricPrecision; image-rendering:optimizeQuality; fill-rule:evenodd; clip-rule:evenodd"
viewBox="0 0 44.81 41.72"
 xmlns:xlink="http://www.w3.org/1999/xlink"
 xmlns:xodm="http://www.corel.com/coreldraw/odm/2003">
 <defs>
   <clipPath id="id0">
    <path d="M0.43 16.22c0.02,-0.55 0.12,-1.12 0.4,-1.73 -0.66,-2.1 -1.03,-4.21 -0.46,-6.4 1.26,1.02 2.39,1.78 3.3,2.14 0.09,-0.15 0.18,-0.3 0.27,-0.44 -0.51,-1.47 -0.72,-2.66 -0.65,-3.6 0.53,0.73 1.13,1.61 1.65,1.83 1.4,-1.35 2.71,-2.69 4.24,-3.6 9.33,-6.71 21.75,-5.5 28.13,1.7 1.36,-1.46 2,-3.32 2.13,-5.47 2.39,2.82 2.28,5.84 1.41,8.93 0.25,0.35 0.41,0.75 0.53,1.16 0.78,-0.64 1.33,-1.73 1.72,-3.14 1.33,3 0.97,5.64 -0.17,8.12 0.03,0.13 0.05,0.25 0.08,0.38 0.23,-0 0.46,-0.12 0.66,-0.36 0.13,0.45 0.22,1.05 0.29,1.73 0.18,0.12 0.36,0.14 0.52,-0.05 0.16,-0.29 0.23,-0.71 0.22,-1.27 2.88,36.62 -49.93,31.41 -44.27,0.05z"/>
   </clipPath>
 </defs>
 <g id="Layer_x0020_1">
  <metadata id="CorelCorpID_0Corel-Layer"/>
  <g style="clip-path:url(#id0)">
   <image x="-18.35" y="-2.11" width="79.17" height="67.74" xlink:href="icon_Images\icon_ImgID1.png"/>
  </g>
 </g>
</svg>
